<?xml version="1.0" encoding="UTF-8"?>
<svg xmlns="http://www.w3.org/2000/svg" xmlns:xlink="http://www.w3.org/1999/xlink" width="500px" height="500px" viewBox="0 0 500 500" version="1.1">
<defs>
<filter id="alpha" filterUnits="objectBoundingBox" x="0%" y="0%" width="100%" height="100%">
  <feColorMatrix type="matrix" in="SourceGraphic" values="0 0 0 0 1 0 0 0 0 1 0 0 0 0 1 0 0 0 1 0"/>
</filter>
<mask id="mask0">
  <g filter="url(#alpha)">
<rect x="0" y="0" width="500" height="500" style="fill:rgb(0%,0%,0%);fill-opacity:0.0392157;stroke:none;"/>
  </g>
</mask>
<clipPath id="clip1">
  <rect x="0" y="0" width="501" height="501"/>
</clipPath>
<g id="surface5" clip-path="url(#clip1)">
<path style=" stroke:none;fill-rule:evenodd;fill:rgb(19.607843%,20%,19.607843%);fill-opacity:1;" d="M 306.144531 138.769531 C 308.96875 140.183594 308.96875 140.183594 306.144531 138.769531 Z M 306.144531 138.769531 "/>
</g>
<mask id="mask1">
  <g filter="url(#alpha)">
<rect x="0" y="0" width="500" height="500" style="fill:rgb(0%,0%,0%);fill-opacity:0.686275;stroke:none;"/>
  </g>
</mask>
<clipPath id="clip2">
  <rect x="0" y="0" width="501" height="501"/>
</clipPath>
<g id="surface8" clip-path="url(#clip2)">
<path style=" stroke:none;fill-rule:evenodd;fill:rgb(12.156863%,12.54902%,13.725491%);fill-opacity:1;" d="M 310.382812 147.246094 C 310.746094 149.347656 310.039062 150.757812 308.261719 151.484375 C 308.328125 149.371094 307.265625 147.957031 305.085938 147.246094 C 296.921875 144.527344 289.15625 140.996094 281.78125 136.652344 C 273.191406 140.808594 264.363281 144.339844 255.296875 147.246094 C 255.296875 146.539062 255.296875 145.832031 255.296875 145.128906 C 263.050781 139.835938 271.527344 135.601562 280.71875 132.414062 C 291.394531 136.339844 301.28125 141.28125 310.382812 147.246094 Z M 310.382812 147.246094 "/>
</g>
<mask id="mask2">
  <g filter="url(#alpha)">
<rect x="0" y="0" width="500" height="500" style="fill:rgb(0%,0%,0%);fill-opacity:0.00392157;stroke:none;"/>
  </g>
</mask>
<clipPath id="clip3">
  <rect x="0" y="0" width="501" height="501"/>
</clipPath>
<g id="surface11" clip-path="url(#clip3)">
<path style=" stroke:none;fill-rule:evenodd;fill:rgb(0%,0%,0%);fill-opacity:1;" d="M 136.652344 151.484375 C 139.476562 152.894531 139.476562 152.894531 136.652344 151.484375 Z M 136.652344 151.484375 "/>
</g>
<mask id="mask3">
  <g filter="url(#alpha)">
<rect x="0" y="0" width="500" height="500" style="fill:rgb(0%,0%,0%);fill-opacity:0.87451;stroke:none;"/>
  </g>
</mask>
<clipPath id="clip4">
  <rect x="0" y="0" width="501" height="501"/>
</clipPath>
<g id="surface14" clip-path="url(#clip4)">
<path style=" stroke:none;fill-rule:evenodd;fill:rgb(9.019608%,11.372549%,11.764706%);fill-opacity:1;" d="M 297.667969 164.195312 C 296.257812 164.902344 294.84375 165.605469 293.433594 166.3125 C 291.3125 164.902344 289.195312 163.488281 287.078125 162.078125 C 282.542969 151.125 278.304688 151.125 274.363281 162.078125 C 272.953125 161.371094 271.539062 160.664062 270.128906 159.957031 C 279.894531 143.558594 286.957031 144.265625 291.3125 162.078125 C 294.046875 161.574219 296.167969 162.28125 297.667969 164.195312 Z M 287.078125 162.078125 C 282.839844 162.078125 278.601562 162.078125 274.363281 162.078125 C 278.304688 151.125 282.542969 151.125 287.078125 162.078125 Z M 287.078125 162.078125 "/>
</g>
<mask id="mask4">
  <g filter="url(#alpha)">
<rect x="0" y="0" width="500" height="500" style="fill:rgb(0%,0%,0%);fill-opacity:0.843137;stroke:none;"/>
  </g>
</mask>
<clipPath id="clip5">
  <rect x="0" y="0" width="501" height="501"/>
</clipPath>
<g id="surface17" clip-path="url(#clip5)">
<path style=" stroke:none;fill-rule:evenodd;fill:rgb(36.078432%,39.215687%,39.607844%);fill-opacity:1;" d="M 310.382812 147.246094 C 311.792969 153.601562 313.207031 159.957031 314.617188 166.3125 C 313.355469 173.605469 311.941406 180.667969 310.382812 187.5 C 310.382812 186.085938 309.675781 185.382812 308.261719 185.382812 C 308.261719 174.082031 308.261719 162.78125 308.261719 151.484375 C 310.039062 150.757812 310.746094 149.347656 310.382812 147.246094 Z M 310.382812 147.246094 "/>
</g>
<mask id="mask5">
  <g filter="url(#alpha)">
<rect x="0" y="0" width="500" height="500" style="fill:rgb(0%,0%,0%);fill-opacity:0.321569;stroke:none;"/>
  </g>
</mask>
<clipPath id="clip6">
  <rect x="0" y="0" width="501" height="501"/>
</clipPath>
<g id="surface20" clip-path="url(#clip6)">
<path style=" stroke:none;fill-rule:evenodd;fill:rgb(9.803922%,28.627452%,24.705882%);fill-opacity:1;" d="M 270.128906 159.957031 C 271.539062 160.664062 272.953125 161.371094 274.363281 162.078125 C 278.601562 162.078125 282.839844 162.078125 287.078125 162.078125 C 289.195312 163.488281 291.3125 164.902344 293.433594 166.3125 C 294.84375 165.605469 296.257812 164.902344 297.667969 164.195312 C 298.019531 171.292969 297.664062 178.355469 296.609375 185.382812 C 286.015625 188.207031 275.421875 188.207031 264.832031 185.382812 C 263.773438 177.644531 263.421875 169.875 263.769531 162.078125 C 266.507812 162.578125 268.625 161.871094 270.128906 159.957031 Z M 270.128906 159.957031 "/>
</g>
<mask id="mask6">
  <g filter="url(#alpha)">
<rect x="0" y="0" width="500" height="500" style="fill:rgb(0%,0%,0%);fill-opacity:0.929412;stroke:none;"/>
  </g>
</mask>
<clipPath id="clip7">
  <rect x="0" y="0" width="501" height="501"/>
</clipPath>
<g id="surface23" clip-path="url(#clip7)">
<path style=" stroke:none;fill-rule:evenodd;fill:rgb(10.196079%,15.686275%,16.078432%);fill-opacity:1;" d="M 308.261719 185.382812 C 309.675781 185.382812 310.382812 186.085938 310.382812 187.5 C 298.757812 198.773438 284.988281 205.835938 269.066406 208.6875 C 268.011719 217.839844 267.65625 227.019531 268.007812 236.230469 C 265.191406 270.273438 265.191406 304.527344 268.007812 338.984375 C 266.855469 340.503906 265.441406 341.5625 263.769531 342.160156 C 263.769531 294.84375 263.769531 247.527344 263.769531 200.210938 C 268.109375 202.839844 273.054688 204.253906 278.601562 204.449219 C 289.207031 199.148438 299.09375 192.792969 308.261719 185.382812 Z M 308.261719 185.382812 "/>
</g>
<mask id="mask7">
  <g filter="url(#alpha)">
<rect x="0" y="0" width="500" height="500" style="fill:rgb(0%,0%,0%);fill-opacity:0.996078;stroke:none;"/>
  </g>
</mask>
<clipPath id="clip8">
  <rect x="0" y="0" width="501" height="501"/>
</clipPath>
<g id="surface26" clip-path="url(#clip8)">
<path style=" stroke:none;fill-rule:evenodd;fill:rgb(1.568628%,16.470589%,13.333334%);fill-opacity:1;" d="M 149.363281 198.09375 C 183.804688 200.179688 218.410156 200.886719 253.179688 200.210938 C 253.824219 211.359375 253.117188 222.304688 251.058594 233.050781 C 217.867188 234.464844 184.675781 234.464844 151.484375 233.050781 C 150.421875 231.992188 149.363281 230.933594 148.304688 229.871094 C 146.765625 219.167969 147.121094 208.574219 149.363281 198.09375 Z M 149.363281 198.09375 "/>
</g>
<mask id="mask8">
  <g filter="url(#alpha)">
<rect x="0" y="0" width="500" height="500" style="fill:rgb(0%,0%,0%);fill-opacity:0.682353;stroke:none;"/>
  </g>
</mask>
<clipPath id="clip9">
  <rect x="0" y="0" width="501" height="501"/>
</clipPath>
<g id="surface29" clip-path="url(#clip9)">
<path style=" stroke:none;fill-rule:evenodd;fill:rgb(5.098039%,5.098039%,6.27451%);fill-opacity:1;" d="M 208.6875 242.585938 C 223.328125 242.390625 237.453125 243.097656 251.058594 244.703125 C 253.816406 255.054688 253.816406 265.292969 251.058594 275.421875 C 243.542969 277.730469 235.773438 278.789062 227.753906 278.601562 C 201.121094 277.613281 174.636719 276.203125 148.304688 274.363281 C 146.613281 264.644531 146.964844 255.113281 149.363281 245.761719 C 169.511719 245.402344 189.285156 244.34375 208.6875 242.585938 Z M 246.820312 246.820312 C 248.90625 254.867188 249.613281 263.34375 248.941406 272.246094 C 216.457031 272.246094 183.96875 272.246094 151.484375 272.246094 C 151.484375 264.476562 151.484375 256.710938 151.484375 248.941406 C 183.636719 249.636719 215.414062 248.933594 246.820312 246.820312 Z M 246.820312 246.820312 "/>
</g>
<mask id="mask9">
  <g filter="url(#alpha)">
<rect x="0" y="0" width="500" height="500" style="fill:rgb(0%,0%,0%);fill-opacity:0.560784;stroke:none;"/>
  </g>
</mask>
<clipPath id="clip10">
  <rect x="0" y="0" width="501" height="501"/>
</clipPath>
<g id="surface32" clip-path="url(#clip10)">
<path style=" stroke:none;fill-rule:evenodd;fill:rgb(1.176471%,1.176471%,1.568628%);fill-opacity:1;" d="M 162.078125 255.296875 C 165.246094 255.117188 167.363281 256.527344 168.433594 259.535156 C 166.695312 262.945312 163.871094 264.359375 159.957031 263.769531 C 159.816406 260.679688 160.519531 257.855469 162.078125 255.296875 Z M 162.078125 255.296875 "/>
</g>
<mask id="mask10">
  <g filter="url(#alpha)">
<rect x="0" y="0" width="500" height="500" style="fill:rgb(0%,0%,0%);fill-opacity:0.552941;stroke:none;"/>
  </g>
</mask>
<clipPath id="clip11">
  <rect x="0" y="0" width="501" height="501"/>
</clipPath>
<g id="surface35" clip-path="url(#clip11)">
<path style=" stroke:none;fill-rule:evenodd;fill:rgb(2.352941%,2.352941%,2.352941%);fill-opacity:1;" d="M 176.90625 255.296875 C 184.027344 256.785156 184.734375 259.613281 179.027344 263.769531 C 174.488281 261.785156 173.78125 258.960938 176.90625 255.296875 Z M 176.90625 255.296875 "/>
</g>
<mask id="mask11">
  <g filter="url(#alpha)">
<rect x="0" y="0" width="500" height="500" style="fill:rgb(0%,0%,0%);fill-opacity:0.564706;stroke:none;"/>
  </g>
</mask>
<clipPath id="clip12">
  <rect x="0" y="0" width="501" height="501"/>
</clipPath>
<g id="surface38" clip-path="url(#clip12)">
<path style=" stroke:none;fill-rule:evenodd;fill:rgb(1.568628%,1.568628%,1.568628%);fill-opacity:1;" d="M 191.738281 255.296875 C 196.71875 257.507812 197.074219 260.332031 192.796875 263.769531 C 189.050781 261.265625 188.695312 258.441406 191.738281 255.296875 Z M 191.738281 255.296875 "/>
</g>
<mask id="mask12">
  <g filter="url(#alpha)">
<rect x="0" y="0" width="500" height="500" style="fill:rgb(0%,0%,0%);fill-opacity:0.533333;stroke:none;"/>
  </g>
</mask>
<clipPath id="clip13">
  <rect x="0" y="0" width="501" height="501"/>
</clipPath>
<g id="surface41" clip-path="url(#clip13)">
<path style=" stroke:none;fill-rule:evenodd;fill:rgb(1.176471%,1.176471%,3.137255%);fill-opacity:1;" d="M 206.566406 255.296875 C 210.753906 257.261719 211.460938 260.085938 208.6875 263.769531 C 204.148438 261.785156 203.441406 258.960938 206.566406 255.296875 Z M 206.566406 255.296875 "/>
</g>
<mask id="mask13">
  <g filter="url(#alpha)">
<rect x="0" y="0" width="500" height="500" style="fill:rgb(0%,0%,0%);fill-opacity:0.996078;stroke:none;"/>
  </g>
</mask>
<clipPath id="clip14">
  <rect x="0" y="0" width="501" height="501"/>
</clipPath>
<g id="surface44" clip-path="url(#clip14)">
<path style=" stroke:none;fill-rule:evenodd;fill:rgb(4.705882%,4.705882%,5.490196%);fill-opacity:1;" d="M 219.28125 257.414062 C 225.738281 257.402344 226.796875 259.519531 222.457031 263.769531 C 220.257812 262.195312 219.195312 260.078125 219.28125 257.414062 Z M 219.28125 257.414062 "/>
</g>
<mask id="mask14">
  <g filter="url(#alpha)">
<rect x="0" y="0" width="500" height="500" style="fill:rgb(0%,0%,0%);fill-opacity:0.980392;stroke:none;"/>
  </g>
</mask>
<clipPath id="clip15">
  <rect x="0" y="0" width="501" height="501"/>
</clipPath>
<g id="surface47" clip-path="url(#clip15)">
<path style=" stroke:none;fill-rule:evenodd;fill:rgb(7.843138%,7.450981%,7.450981%);fill-opacity:1;" d="M 234.109375 257.414062 C 236.230469 257.414062 238.347656 257.414062 240.464844 257.414062 C 238.886719 265.488281 236.765625 265.488281 234.109375 257.414062 Z M 234.109375 257.414062 "/>
</g>
<mask id="mask15">
  <g filter="url(#alpha)">
<rect x="0" y="0" width="500" height="500" style="fill:rgb(0%,0%,0%);fill-opacity:0.705882;stroke:none;"/>
  </g>
</mask>
<clipPath id="clip16">
  <rect x="0" y="0" width="501" height="501"/>
</clipPath>
<g id="surface50" clip-path="url(#clip16)">
<path style=" stroke:none;fill-rule:evenodd;fill:rgb(11.372549%,14.901961%,15.686275%);fill-opacity:1;" d="M 325.210938 268.007812 C 324.710938 270.742188 325.414062 272.863281 327.332031 274.363281 C 327.015625 276.59375 327.367188 278.710938 328.390625 280.71875 C 329.09375 280.015625 329.804688 279.308594 330.507812 278.601562 C 337.5 282.960938 337.144531 285.078125 329.449219 284.957031 C 329.683594 286.265625 330.390625 287.324219 331.566406 288.136719 C 336.136719 288.300781 340.375 288.65625 344.28125 289.195312 C 342.867188 292.726562 341.457031 296.257812 340.042969 299.789062 C 347.015625 303.347656 354.082031 304.054688 361.230469 301.90625 C 361.230469 298.375 361.230469 294.84375 361.230469 291.3125 C 361.953125 289.539062 363.363281 288.832031 365.464844 289.195312 C 365.464844 294.84375 365.464844 300.492188 365.464844 306.144531 C 354.871094 306.144531 344.28125 306.144531 333.6875 306.144531 C 335.746094 302.820312 336.101562 299.289062 334.746094 295.550781 C 324.132812 288.777344 320.953125 279.59375 325.210938 268.007812 Z M 325.210938 268.007812 "/>
</g>
<mask id="mask16">
  <g filter="url(#alpha)">
<rect x="0" y="0" width="500" height="500" style="fill:rgb(0%,0%,0%);fill-opacity:0.862745;stroke:none;"/>
  </g>
</mask>
<clipPath id="clip17">
  <rect x="0" y="0" width="501" height="501"/>
</clipPath>
<g id="surface53" clip-path="url(#clip17)">
<path style=" stroke:none;fill-rule:evenodd;fill:rgb(3.529412%,21.176471%,18.039216%);fill-opacity:1;" d="M 223.515625 320.972656 C 222.105469 320.269531 220.691406 319.5625 219.28125 318.855469 C 216.984375 315.003906 214.15625 311.472656 210.804688 308.261719 C 208.1875 310.042969 206.070312 312.160156 204.449219 314.617188 C 202.414062 310.511719 203.824219 307.335938 208.6875 305.085938 C 207.09375 303.664062 206.386719 301.898438 206.566406 299.789062 C 212.28125 303.386719 216.515625 308.332031 219.28125 314.617188 C 224.03125 316.683594 228.972656 317.390625 234.109375 316.738281 C 236.191406 308.691406 236.902344 300.214844 236.230469 291.3125 C 222.8125 291.3125 209.394531 291.3125 195.972656 291.3125 C 185.128906 290.035156 175.242188 291.449219 166.3125 295.550781 C 164.902344 294.84375 163.488281 294.136719 162.078125 293.433594 C 161.894531 291.320312 162.601562 289.558594 164.195312 288.136719 C 190.550781 287.707031 215.265625 288.058594 238.347656 289.195312 C 238.347656 299.789062 238.347656 310.382812 238.347656 320.972656 C 233.40625 320.972656 228.460938 320.972656 223.515625 320.972656 Z M 223.515625 320.972656 "/>
</g>
<mask id="mask17">
  <g filter="url(#alpha)">
<rect x="0" y="0" width="500" height="500" style="fill:rgb(0%,0%,0%);fill-opacity:0.152941;stroke:none;"/>
  </g>
</mask>
<clipPath id="clip18">
  <rect x="0" y="0" width="501" height="501"/>
</clipPath>
<g id="surface56" clip-path="url(#clip18)">
<path style=" stroke:none;fill-rule:evenodd;fill:rgb(5.098039%,9.803922%,9.803922%);fill-opacity:1;" d="M 109.109375 282.839844 C 109.109375 316.03125 109.109375 349.222656 109.109375 382.414062 C 107.699219 384.535156 106.285156 386.652344 104.871094 388.769531 C 105.570312 358.03125 104.863281 327.664062 102.753906 297.667969 C 102.753906 293.433594 102.753906 289.195312 102.753906 284.957031 C 104.0625 285.191406 105.121094 285.898438 105.933594 287.078125 C 106.523438 285.136719 107.582031 283.722656 109.109375 282.839844 Z M 109.109375 282.839844 "/>
</g>
<mask id="mask18">
  <g filter="url(#alpha)">
<rect x="0" y="0" width="500" height="500" style="fill:rgb(0%,0%,0%);fill-opacity:0.458824;stroke:none;"/>
  </g>
</mask>
<clipPath id="clip19">
  <rect x="0" y="0" width="501" height="501"/>
</clipPath>
<g id="surface59" clip-path="url(#clip19)">
<path style=" stroke:none;fill-rule:evenodd;fill:rgb(12.941177%,31.764707%,28.627452%);fill-opacity:1;" d="M 162.078125 293.433594 C 163.488281 294.136719 164.902344 294.84375 166.3125 295.550781 C 166.3125 302.613281 166.3125 309.675781 166.3125 316.738281 C 178.023438 317.417969 189.320312 316.710938 200.210938 314.617188 C 201.625 314.617188 203.035156 314.617188 204.449219 314.617188 C 204.8125 316.71875 204.105469 318.132812 202.332031 318.855469 C 200.230469 318.492188 198.816406 319.199219 198.09375 320.972656 C 186.773438 321.328125 175.472656 320.972656 164.195312 319.914062 C 162.152344 311.300781 161.445312 302.472656 162.078125 293.433594 Z M 162.078125 293.433594 "/>
</g>
<mask id="mask19">
  <g filter="url(#alpha)">
<rect x="0" y="0" width="500" height="500" style="fill:rgb(0%,0%,0%);fill-opacity:0.752941;stroke:none;"/>
  </g>
</mask>
<clipPath id="clip20">
  <rect x="0" y="0" width="501" height="501"/>
</clipPath>
<g id="surface62" clip-path="url(#clip20)">
<path style=" stroke:none;fill-rule:evenodd;fill:rgb(12.54902%,14.117648%,15.294118%);fill-opacity:1;" d="M 202.332031 318.855469 C 204.195312 327.4375 209.492188 333.085938 218.21875 335.804688 C 223.609375 332.890625 223.960938 330.417969 219.28125 328.390625 C 220.265625 325.636719 220.265625 322.460938 219.28125 318.855469 C 220.691406 319.5625 222.105469 320.269531 223.515625 320.972656 C 223.238281 322.539062 223.59375 323.953125 224.578125 325.210938 C 229.792969 326.339844 233.679688 329.164062 236.230469 333.6875 C 235.523438 333.6875 234.816406 333.6875 234.109375 333.6875 C 233.40625 333.6875 232.695312 333.6875 231.992188 333.6875 C 231.285156 333.6875 230.578125 333.6875 229.871094 333.6875 C 229.167969 330.863281 228.460938 330.863281 227.753906 333.6875 C 222.988281 334.914062 219.460938 337.738281 217.160156 342.160156 C 218.714844 344.71875 219.421875 347.542969 219.28125 350.636719 C 200.6875 351.570312 182.324219 350.511719 164.195312 347.457031 C 181.144531 346.753906 198.09375 346.042969 215.042969 345.339844 C 213.628906 342.515625 212.21875 339.6875 210.804688 336.863281 C 195.21875 336.507812 179.683594 335.445312 164.195312 333.6875 C 176.847656 331.929688 189.558594 330.867188 202.332031 330.507812 C 199.074219 328.15625 197.660156 324.980469 198.09375 320.972656 C 198.816406 319.199219 200.230469 318.492188 202.332031 318.855469 Z M 202.332031 318.855469 "/>
</g>
<mask id="mask20">
  <g filter="url(#alpha)">
<rect x="0" y="0" width="500" height="500" style="fill:rgb(0%,0%,0%);fill-opacity:0.615686;stroke:none;"/>
  </g>
</mask>
<clipPath id="clip21">
  <rect x="0" y="0" width="501" height="501"/>
</clipPath>
<g id="surface65" clip-path="url(#clip21)">
<path style=" stroke:none;fill-rule:evenodd;fill:rgb(45.09804%,68.235296%,65.098041%);fill-opacity:1;" d="M 306.144531 378.179688 C 306.746094 374.121094 306.039062 370.589844 304.027344 367.585938 C 304.027344 365.464844 304.027344 363.347656 304.027344 361.230469 C 304.625 359.558594 305.683594 358.144531 307.203125 356.992188 C 308.914062 364.464844 308.5625 371.527344 306.144531 378.179688 Z M 306.144531 378.179688 "/>
</g>
<mask id="mask21">
  <g filter="url(#alpha)">
<rect x="0" y="0" width="500" height="500" style="fill:rgb(0%,0%,0%);fill-opacity:0.988235;stroke:none;"/>
  </g>
</mask>
<clipPath id="clip22">
  <rect x="0" y="0" width="501" height="501"/>
</clipPath>
<g id="surface68" clip-path="url(#clip22)">
<path style=" stroke:none;fill-rule:evenodd;fill:rgb(3.137255%,15.294118%,12.54902%);fill-opacity:1;" d="M 390.890625 348.515625 C 395.886719 355.617188 400.832031 362.679688 405.71875 369.703125 C 400.136719 375.167969 395.546875 381.523438 391.949219 388.769531 C 390.640625 386.761719 390.992188 384.996094 393.007812 383.472656 C 391.75 382.492188 390.335938 382.136719 388.769531 382.414062 C 388.089844 370.707031 388.796875 359.40625 390.890625 348.515625 Z M 393.007812 359.109375 C 396.90625 361.246094 399.730469 364.421875 401.484375 368.644531 C 399.011719 372.527344 396.539062 376.414062 394.066406 380.296875 C 392.847656 376.320312 393.203125 372.433594 395.128906 368.644531 C 394.578125 365.972656 393.164062 363.855469 390.890625 362.289062 C 392.066406 361.476562 392.773438 360.417969 393.007812 359.109375 Z M 393.007812 359.109375 "/>
</g>
<mask id="mask22">
  <g filter="url(#alpha)">
<rect x="0" y="0" width="500" height="500" style="fill:rgb(0%,0%,0%);fill-opacity:0.901961;stroke:none;"/>
  </g>
</mask>
<clipPath id="clip23">
  <rect x="0" y="0" width="501" height="501"/>
</clipPath>
<g id="surface71" clip-path="url(#clip23)">
<path style=" stroke:none;fill-rule:evenodd;fill:rgb(7.843138%,15.686275%,14.901961%);fill-opacity:1;" d="M 227.753906 333.6875 C 228.460938 333.6875 229.167969 333.6875 229.871094 333.6875 C 230.578125 333.6875 231.285156 333.6875 231.992188 333.6875 C 228.507812 337.882812 224.980469 342.121094 221.398438 346.398438 C 228.507812 354.210938 235.570312 361.976562 242.585938 369.703125 C 239.761719 369.703125 238.347656 371.117188 238.347656 373.941406 C 238.933594 380.1875 238.230469 386.1875 236.230469 391.949219 C 194.566406 393.007812 152.902344 393.363281 111.230469 393.007812 C 143.007812 391.59375 174.789062 390.183594 206.566406 388.769531 C 215.980469 391.234375 224.808594 391.234375 233.050781 388.769531 C 233.488281 381.167969 234.546875 373.753906 236.230469 366.527344 C 235.167969 365.464844 234.109375 364.40625 233.050781 363.347656 C 227.648438 364.3125 221.644531 365.019531 215.042969 365.464844 C 216.457031 364.054688 217.867188 362.640625 219.28125 361.230469 C 222.203125 360.867188 225.734375 360.511719 229.871094 360.167969 C 226.617188 356.554688 223.085938 353.375 219.28125 350.636719 C 219.421875 347.542969 218.714844 344.71875 217.160156 342.160156 C 221.925781 340.933594 225.457031 338.109375 227.753906 333.6875 Z M 227.753906 333.6875 "/>
</g>
<mask id="mask23">
  <g filter="url(#alpha)">
<rect x="0" y="0" width="500" height="500" style="fill:rgb(0%,0%,0%);fill-opacity:0.117647;stroke:none;"/>
  </g>
</mask>
<clipPath id="clip24">
  <rect x="0" y="0" width="501" height="501"/>
</clipPath>
<g id="surface74" clip-path="url(#clip24)">
<path style=" stroke:none;fill-rule:evenodd;fill:rgb(32.156864%,36.078432%,36.470589%);fill-opacity:1;" d="M 109.109375 382.414062 C 109.109375 384.535156 109.109375 386.652344 109.109375 388.769531 C 141.597656 388.769531 174.082031 388.769531 206.566406 388.769531 C 174.789062 390.183594 143.007812 391.59375 111.230469 393.007812 C 110.523438 393.007812 109.816406 393.007812 109.109375 393.007812 C 106.992188 392.304688 105.578125 390.890625 104.871094 388.769531 C 106.285156 386.652344 107.699219 384.535156 109.109375 382.414062 Z M 109.109375 382.414062 "/>
</g>
<mask id="mask24">
  <g filter="url(#alpha)">
<rect x="0" y="0" width="500" height="500" style="fill:rgb(0%,0%,0%);fill-opacity:0.819608;stroke:none;"/>
  </g>
</mask>
<clipPath id="clip25">
  <rect x="0" y="0" width="501" height="501"/>
</clipPath>
<g id="surface77" clip-path="url(#clip25)">
<path style=" stroke:none;fill-rule:evenodd;fill:rgb(12.941177%,20.392157%,19.607843%);fill-opacity:1;" d="M 64.617188 403.601562 C 99.058594 405.6875 133.664062 406.394531 168.433594 405.71875 C 132.785156 407.832031 96.769531 408.539062 60.382812 407.839844 C 61.792969 406.425781 63.207031 405.015625 64.617188 403.601562 Z M 64.617188 403.601562 "/>
</g>
<mask id="mask25">
  <g filter="url(#alpha)">
<rect x="0" y="0" width="500" height="500" style="fill:rgb(0%,0%,0%);fill-opacity:0.258824;stroke:none;"/>
  </g>
</mask>
<clipPath id="clip26">
  <rect x="0" y="0" width="501" height="501"/>
</clipPath>
<g id="surface80" clip-path="url(#clip26)">
<path style=" stroke:none;fill-rule:evenodd;fill:rgb(5.098039%,8.627451%,8.235294%);fill-opacity:1;" d="M 168.433594 405.71875 C 214.335938 405.71875 260.238281 405.71875 306.144531 405.71875 C 306.847656 405.71875 307.558594 405.71875 308.261719 405.71875 C 335.097656 405.71875 361.933594 405.71875 388.769531 405.71875 C 402.894531 405.71875 417.019531 405.71875 431.144531 405.71875 C 430.910156 407.027344 430.203125 408.085938 429.027344 408.898438 C 305.789062 410.660156 182.90625 410.308594 60.382812 407.839844 C 96.769531 408.539062 132.785156 407.832031 168.433594 405.71875 Z M 168.433594 405.71875 "/>
</g>
</defs>
<g id="surface1">
<use xlink:href="#surface5" mask="url(#mask0)"/>
<use xlink:href="#surface8" mask="url(#mask1)"/>
<use xlink:href="#surface11" mask="url(#mask2)"/>
<use xlink:href="#surface14" mask="url(#mask3)"/>
<path style=" stroke:none;fill-rule:evenodd;fill:rgb(2.745098%,2.745098%,3.137255%);fill-opacity:1;" d="M 255.296875 145.128906 C 255.296875 145.832031 255.296875 146.539062 255.296875 147.246094 C 252.921875 159.785156 252.566406 172.496094 254.238281 185.382812 C 263.082031 191.011719 271.203125 197.367188 278.601562 204.449219 C 273.054688 204.253906 268.109375 202.839844 263.769531 200.210938 C 261.035156 195.722656 257.152344 192.191406 252.117188 189.617188 C 249.570312 185.003906 248.511719 180.0625 248.941406 174.789062 C 212.21875 174.789062 175.496094 174.789062 138.769531 174.789062 C 136.734375 236.382812 136.382812 297.113281 137.710938 356.992188 C 141.242188 358.40625 144.773438 359.816406 148.304688 361.230469 C 171.519531 361.136719 195.179688 361.136719 219.28125 361.230469 C 217.867188 362.640625 216.457031 364.054688 215.042969 365.464844 C 190.707031 365.441406 166.339844 365.441406 141.949219 365.464844 C 139.394531 364.257812 136.925781 362.84375 134.535156 361.230469 C 132.4375 309.0625 131.730469 256.804688 132.414062 204.449219 C 124.648438 204.449219 116.878906 204.449219 109.109375 204.449219 C 109.109375 230.578125 109.109375 256.710938 109.109375 282.839844 C 107.582031 283.722656 106.523438 285.136719 105.933594 287.078125 C 105.121094 285.898438 104.0625 285.191406 102.753906 284.957031 C 102.441406 251.4375 103.148438 218.242188 104.871094 185.382812 C 114.054688 185.382812 123.234375 185.382812 132.414062 185.382812 C 132.066406 176.878906 132.417969 168.402344 133.472656 159.957031 C 135.25 157.574219 137.722656 156.164062 140.890625 155.71875 C 176.589844 155.9375 212.605469 155.582031 248.941406 154.660156 C 249.960938 152.523438 250.3125 150.054688 250 147.246094 C 251.421875 145.652344 253.1875 144.945312 255.296875 145.128906 Z M 255.296875 145.128906 "/>
<use xlink:href="#surface17" mask="url(#mask4)"/>
<path style=" stroke:none;fill-rule:evenodd;fill:rgb(79.607844%,98.039216%,95.686275%);fill-opacity:1;" d="M 405.71875 403.601562 C 401.484375 403.601562 397.246094 403.601562 393.007812 403.601562 C 392.675781 400.691406 393.03125 397.867188 394.066406 395.128906 C 403.070312 381.167969 411.195312 366.691406 418.433594 351.695312 C 414.039062 341.320312 407.683594 332.492188 399.363281 325.210938 C 393.058594 311.019531 381.757812 304.664062 365.464844 306.144531 C 365.464844 300.492188 365.464844 294.84375 365.464844 289.195312 C 377.816406 278.609375 383.113281 265.191406 381.355469 248.941406 C 375.621094 237.066406 366.085938 232.121094 352.753906 234.109375 C 339.765625 232.488281 329.878906 237.078125 323.09375 247.882812 C 324.507812 250.707031 325.917969 253.53125 327.332031 256.355469 C 325.777344 260.097656 325.070312 263.980469 325.210938 268.007812 C 320.953125 279.59375 324.132812 288.777344 334.746094 295.550781 C 336.101562 299.289062 335.746094 302.820312 333.6875 306.144531 C 320.988281 304.257812 310.394531 307.789062 301.90625 316.738281 C 295.480469 319.949219 289.832031 324.1875 284.957031 329.449219 C 281.6875 329.878906 278.859375 331.292969 276.484375 333.6875 C 274.363281 332.273438 272.246094 330.863281 270.128906 329.449219 C 268.011719 298.40625 267.304688 267.335938 268.007812 236.230469 C 267.65625 227.019531 268.011719 217.839844 269.066406 208.6875 C 284.988281 205.835938 298.757812 198.773438 310.382812 187.5 C 311.941406 180.667969 313.355469 173.605469 314.617188 166.3125 C 355.679688 154.691406 387.8125 166.695312 411.015625 202.332031 C 447.808594 261.140625 451.339844 321.875 421.609375 384.535156 C 416.664062 391.238281 411.367188 397.59375 405.71875 403.601562 Z M 361.230469 291.3125 C 361.230469 294.84375 361.230469 298.375 361.230469 301.90625 C 354.082031 304.054688 347.015625 303.347656 340.042969 299.789062 C 341.457031 296.257812 342.867188 292.726562 344.28125 289.195312 C 340.375 288.65625 336.136719 288.300781 331.566406 288.136719 C 330.390625 287.324219 329.683594 286.265625 329.449219 284.957031 C 337.144531 285.078125 337.5 282.960938 330.507812 278.601562 C 329.804688 279.308594 329.09375 280.015625 328.390625 280.71875 C 327.367188 278.710938 327.015625 276.59375 327.332031 274.363281 C 327.566406 272.589844 328.269531 270.472656 329.449219 268.007812 C 336.492188 265.882812 337.203125 263.054688 331.566406 259.535156 C 334.570312 255.703125 338.808594 254.289062 344.28125 255.296875 C 344.320312 258.777344 342.910156 261.601562 340.042969 263.769531 C 341.898438 265.363281 344.015625 266.421875 346.398438 266.949219 C 341.285156 278.75 344.816406 287.578125 356.992188 293.433594 C 358.4375 292.664062 359.851562 291.957031 361.230469 291.3125 Z M 361.230469 291.3125 "/>
<use xlink:href="#surface20" mask="url(#mask5)"/>
<path style=" stroke:none;fill-rule:evenodd;fill:rgb(30.19608%,74.509805%,65.490198%);fill-opacity:1;" d="M 293.433594 166.3125 C 293.433594 171.964844 293.433594 177.613281 293.433594 183.261719 C 284.957031 183.261719 276.484375 183.261719 268.007812 183.261719 C 268.007812 177.613281 268.007812 171.964844 268.007812 166.3125 C 276.484375 166.3125 284.957031 166.3125 293.433594 166.3125 Z M 293.433594 166.3125 "/>
<use xlink:href="#surface23" mask="url(#mask6)"/>
<use xlink:href="#surface26" mask="url(#mask7)"/>
<path style=" stroke:none;fill-rule:evenodd;fill:rgb(28.627452%,63.529414%,56.862748%);fill-opacity:1;" d="M 248.941406 204.449219 C 251.023438 212.496094 251.730469 220.96875 251.058594 229.871094 C 217.867188 229.871094 184.675781 229.871094 151.484375 229.871094 C 151.484375 220.691406 151.484375 211.511719 151.484375 202.332031 C 184.339844 201.632812 216.828125 202.339844 248.941406 204.449219 Z M 248.941406 204.449219 "/>
<path style=" stroke:none;fill-rule:evenodd;fill:rgb(21.960784%,78.823531%,68.235296%);fill-opacity:1;" d="M 248.941406 204.449219 C 249.289062 212.25 248.9375 220.015625 247.882812 227.753906 C 217.59375 228.03125 186.875 227.679688 155.71875 226.695312 C 153.695312 219.503906 152.988281 212.089844 153.601562 204.449219 C 185.382812 204.449219 217.160156 204.449219 248.941406 204.449219 Z M 248.941406 204.449219 "/>
<path style=" stroke:none;fill-rule:evenodd;fill:rgb(3.921569%,5.098039%,5.098039%);fill-opacity:1;" d="M 365.464844 289.195312 C 363.363281 288.832031 361.953125 289.539062 361.230469 291.3125 C 359.851562 291.957031 358.4375 292.664062 356.992188 293.433594 C 344.816406 287.578125 341.285156 278.75 346.398438 266.949219 C 344.015625 266.421875 341.898438 265.363281 340.042969 263.769531 C 342.910156 261.601562 344.320312 258.777344 344.28125 255.296875 C 338.808594 254.289062 334.570312 255.703125 331.566406 259.535156 C 337.203125 263.054688 336.492188 265.882812 329.449219 268.007812 C 328.269531 270.472656 327.566406 272.589844 327.332031 274.363281 C 325.414062 272.863281 324.710938 270.742188 325.210938 268.007812 C 325.070312 263.980469 325.777344 260.097656 327.332031 256.355469 C 325.917969 253.53125 324.507812 250.707031 323.09375 247.882812 C 329.878906 237.078125 339.765625 232.488281 352.753906 234.109375 C 366.085938 232.121094 375.621094 237.066406 381.355469 248.941406 C 383.113281 265.191406 377.816406 278.609375 365.464844 289.195312 Z M 365.464844 289.195312 "/>
<use xlink:href="#surface29" mask="url(#mask8)"/>
<use xlink:href="#surface32" mask="url(#mask9)"/>
<use xlink:href="#surface35" mask="url(#mask10)"/>
<use xlink:href="#surface38" mask="url(#mask11)"/>
<use xlink:href="#surface41" mask="url(#mask12)"/>
<use xlink:href="#surface44" mask="url(#mask13)"/>
<use xlink:href="#surface47" mask="url(#mask14)"/>
<path style=" stroke:none;fill-rule:evenodd;fill:rgb(11.372549%,22.745098%,21.568628%);fill-opacity:1;" d="M 268.007812 236.230469 C 267.304688 267.335938 268.011719 298.40625 270.128906 329.449219 C 272.246094 330.863281 274.363281 332.273438 276.484375 333.6875 C 278.859375 331.292969 281.6875 329.878906 284.957031 329.449219 C 277.117188 337.632812 268.289062 344.695312 258.472656 350.636719 C 249.691406 345.734375 241.570312 340.085938 234.109375 333.6875 C 234.816406 333.6875 235.523438 333.6875 236.230469 333.6875 C 243.863281 337.417969 251.28125 341.65625 258.472656 346.398438 C 261.230469 346.105469 262.996094 344.691406 263.769531 342.160156 C 265.441406 341.5625 266.855469 340.503906 268.007812 338.984375 C 265.191406 304.527344 265.191406 270.273438 268.007812 236.230469 Z M 268.007812 236.230469 "/>
<path style=" stroke:none;fill-rule:evenodd;fill:rgb(24.313726%,78.823531%,67.843139%);fill-opacity:1;" d="M 195.972656 291.3125 C 196.859375 292.84375 198.273438 293.902344 200.210938 294.492188 C 197.332031 298.597656 198.035156 302.128906 202.332031 305.085938 C 200.464844 307.957031 199.757812 311.136719 200.210938 314.617188 C 189.320312 316.710938 178.023438 317.417969 166.3125 316.738281 C 166.3125 309.675781 166.3125 302.613281 166.3125 295.550781 C 175.242188 291.449219 185.128906 290.035156 195.972656 291.3125 Z M 195.972656 291.3125 "/>
<use xlink:href="#surface50" mask="url(#mask15)"/>
<path style=" stroke:none;fill-rule:evenodd;fill:rgb(25.098041%,78.039217%,67.843139%);fill-opacity:1;" d="M 234.109375 316.738281 C 228.972656 317.390625 224.03125 316.683594 219.28125 314.617188 C 216.515625 308.332031 212.28125 303.386719 206.566406 299.789062 C 205.609375 297.757812 204.195312 295.992188 202.332031 294.492188 C 212.902344 293.433594 223.492188 293.082031 234.109375 293.433594 C 234.109375 301.203125 234.109375 308.96875 234.109375 316.738281 Z M 234.109375 316.738281 "/>
<path style=" stroke:none;fill-rule:evenodd;fill:rgb(24.705882%,61.56863%,54.11765%);fill-opacity:1;" d="M 195.972656 291.3125 C 209.394531 291.3125 222.8125 291.3125 236.230469 291.3125 C 236.902344 300.214844 236.191406 308.691406 234.109375 316.738281 C 234.109375 308.96875 234.109375 301.203125 234.109375 293.433594 C 223.492188 293.082031 212.902344 293.433594 202.332031 294.492188 C 204.195312 295.992188 205.609375 297.757812 206.566406 299.789062 C 206.386719 301.898438 207.09375 303.664062 208.6875 305.085938 C 203.824219 307.335938 202.414062 310.511719 204.449219 314.617188 C 203.035156 314.617188 201.625 314.617188 200.210938 314.617188 C 199.757812 311.136719 200.464844 307.957031 202.332031 305.085938 C 198.035156 302.128906 197.332031 298.597656 200.210938 294.492188 C 198.273438 293.902344 196.859375 292.84375 195.972656 291.3125 Z M 195.972656 291.3125 "/>
<use xlink:href="#surface53" mask="url(#mask16)"/>
<path style=" stroke:none;fill-rule:evenodd;fill:rgb(11.764706%,32.941177%,29.411766%);fill-opacity:1;" d="M 333.6875 306.144531 C 344.28125 306.144531 354.871094 306.144531 365.464844 306.144531 C 381.757812 304.664062 393.058594 311.019531 399.363281 325.210938 C 393.996094 320.1875 388.347656 315.597656 382.414062 311.441406 C 365.769531 310.917969 349.171875 309.859375 332.628906 308.261719 C 325.953125 309.519531 319.242188 310.578125 312.5 311.441406 C 309.445312 312.238281 307.328125 314.003906 306.144531 316.738281 C 304.730469 316.738281 303.320312 316.738281 301.90625 316.738281 C 310.394531 307.789062 320.988281 304.257812 333.6875 306.144531 Z M 333.6875 306.144531 "/>
<use xlink:href="#surface56" mask="url(#mask17)"/>
<use xlink:href="#surface59" mask="url(#mask18)"/>
<path style=" stroke:none;fill-rule:evenodd;fill:rgb(20%,79.215688%,68.235296%);fill-opacity:1;" d="M 399.363281 325.210938 C 404.746094 333.777344 409.6875 342.605469 414.195312 351.695312 C 412.730469 358.507812 409.902344 364.507812 405.71875 369.703125 C 400.832031 362.679688 395.886719 355.617188 390.890625 348.515625 C 388.632812 345.992188 386.867188 346.695312 385.59375 350.636719 C 383.480469 345.28125 381.714844 345.28125 380.296875 350.636719 C 385.6875 360.152344 385.6875 369.6875 380.296875 379.238281 C 383.050781 383.886719 385.167969 388.832031 386.652344 394.066406 C 382.582031 394.832031 379.050781 396.597656 376.058594 399.363281 C 361.609375 398.730469 347.132812 398.023438 332.628906 397.246094 C 326.070312 399.503906 319.363281 400.914062 312.5 401.484375 C 312.199219 385.152344 313.257812 368.910156 315.679688 352.753906 C 316.351562 349.445312 318.117188 346.972656 320.972656 345.339844 C 314.257812 340.90625 307.902344 341.261719 301.90625 346.398438 C 298.261719 343.316406 294.027344 341.550781 289.195312 341.101562 C 295.429688 338.011719 296.136719 334.480469 291.3125 330.507812 C 294.820312 326.632812 299.058594 323.808594 304.027344 322.035156 C 305.617188 320.613281 306.328125 318.847656 306.144531 316.738281 C 307.328125 314.003906 309.445312 312.238281 312.5 311.441406 C 319.242188 310.578125 325.953125 309.519531 332.628906 308.261719 C 349.171875 309.859375 365.769531 310.917969 382.414062 311.441406 C 388.347656 315.597656 393.996094 320.1875 399.363281 325.210938 Z M 399.363281 325.210938 "/>
<path style=" stroke:none;fill-rule:evenodd;fill:rgb(16.470589%,33.333334%,30.588236%);fill-opacity:1;" d="M 399.363281 325.210938 C 407.683594 332.492188 414.039062 341.320312 418.433594 351.695312 C 411.195312 366.691406 403.070312 381.167969 394.066406 395.128906 C 393.03125 397.867188 392.675781 400.691406 393.007812 403.601562 C 397.246094 403.601562 401.484375 403.601562 405.71875 403.601562 C 414.621094 402.929688 423.097656 403.636719 431.144531 405.71875 C 417.019531 405.71875 402.894531 405.71875 388.769531 405.71875 C 388.769531 397.953125 388.769531 390.183594 388.769531 382.414062 C 390.335938 382.136719 391.75 382.492188 393.007812 383.472656 C 390.992188 384.996094 390.640625 386.761719 391.949219 388.769531 C 395.546875 381.523438 400.136719 375.167969 405.71875 369.703125 C 409.902344 364.507812 412.730469 358.507812 414.195312 351.695312 C 409.6875 342.605469 404.746094 333.777344 399.363281 325.210938 Z M 399.363281 325.210938 "/>
<use xlink:href="#surface62" mask="url(#mask19)"/>
<path style=" stroke:none;fill-rule:evenodd;fill:rgb(24.705882%,76.47059%,66.666669%);fill-opacity:1;" d="M 301.90625 316.738281 C 303.320312 316.738281 304.730469 316.738281 306.144531 316.738281 C 306.328125 318.847656 305.617188 320.613281 304.027344 322.035156 C 299.058594 323.808594 294.820312 326.632812 291.3125 330.507812 C 296.136719 334.480469 295.429688 338.011719 289.195312 341.101562 C 294.027344 341.550781 298.261719 343.316406 301.90625 346.398438 C 307.902344 341.261719 314.257812 340.90625 320.972656 345.339844 C 318.117188 346.972656 316.351562 349.445312 315.679688 352.753906 C 313.257812 368.910156 312.199219 385.152344 312.5 401.484375 C 319.363281 400.914062 326.070312 399.503906 332.628906 397.246094 C 347.132812 398.023438 361.609375 398.730469 376.058594 399.363281 C 379.050781 396.597656 382.582031 394.832031 386.652344 394.066406 C 385.167969 388.832031 383.050781 383.886719 380.296875 379.238281 C 385.6875 369.6875 385.6875 360.152344 380.296875 350.636719 C 381.714844 345.28125 383.480469 345.28125 385.59375 350.636719 C 386.867188 346.695312 388.632812 345.992188 390.890625 348.515625 C 388.796875 359.40625 388.089844 370.707031 388.769531 382.414062 C 388.769531 390.183594 388.769531 397.953125 388.769531 405.71875 C 361.933594 405.71875 335.097656 405.71875 308.261719 405.71875 C 310.167969 385.972656 310.519531 366.203125 309.320312 346.398438 C 295.761719 356.105469 281.992188 365.285156 268.007812 373.941406 C 262.472656 375.921875 256.824219 376.277344 251.058594 375 C 249.003906 371.863281 246.179688 370.09375 242.585938 369.703125 C 235.570312 361.976562 228.507812 354.210938 221.398438 346.398438 C 224.980469 342.121094 228.507812 337.882812 231.992188 333.6875 C 232.695312 333.6875 233.40625 333.6875 234.109375 333.6875 C 241.570312 340.085938 249.691406 345.734375 258.472656 350.636719 C 268.289062 344.695312 277.117188 337.632812 284.957031 329.449219 C 289.832031 324.1875 295.480469 319.949219 301.90625 316.738281 Z M 297.667969 361.230469 C 299.082031 364.054688 300.492188 364.054688 301.90625 361.230469 C 302.613281 361.230469 303.320312 361.230469 304.027344 361.230469 C 304.027344 363.347656 304.027344 365.464844 304.027344 367.585938 C 300.824219 371.695312 296.585938 372.757812 291.3125 370.761719 C 292.492188 369.953125 293.195312 368.890625 293.433594 367.585938 C 294.359375 367.722656 295.066406 367.371094 295.550781 366.527344 C 290.558594 363.941406 291.261719 362.175781 297.667969 361.230469 Z M 297.667969 361.230469 "/>
<path style=" stroke:none;fill-rule:evenodd;fill:rgb(12.54902%,32.156864%,28.627452%);fill-opacity:1;" d="M 308.261719 405.71875 C 307.558594 405.71875 306.847656 405.71875 306.144531 405.71875 C 306.144531 396.539062 306.144531 387.359375 306.144531 378.179688 C 308.5625 371.527344 308.914062 364.464844 307.203125 356.992188 C 305.683594 358.144531 304.625 359.558594 304.027344 361.230469 C 303.320312 361.230469 302.613281 361.230469 301.90625 361.230469 C 300.492188 358.40625 299.082031 358.40625 297.667969 361.230469 C 291.261719 362.175781 290.558594 363.941406 295.550781 366.527344 C 295.066406 367.371094 294.359375 367.722656 293.433594 367.585938 C 288.445312 368.300781 283.503906 369.359375 278.601562 370.761719 C 274.257812 375.042969 269.3125 378.21875 263.769531 380.296875 C 265.183594 378.179688 266.59375 376.058594 268.007812 373.941406 C 281.992188 365.285156 295.761719 356.105469 309.320312 346.398438 C 310.519531 366.203125 310.167969 385.972656 308.261719 405.71875 Z M 297.667969 361.230469 C 299.082031 364.054688 300.492188 364.054688 301.90625 361.230469 C 302.613281 361.230469 303.320312 361.230469 304.027344 361.230469 C 304.027344 363.347656 304.027344 365.464844 304.027344 367.585938 C 300.824219 371.695312 296.585938 372.757812 291.3125 370.761719 C 292.492188 369.953125 293.195312 368.890625 293.433594 367.585938 C 294.359375 367.722656 295.066406 367.371094 295.550781 366.527344 C 290.558594 363.941406 291.261719 362.175781 297.667969 361.230469 Z M 297.667969 361.230469 "/>
<use xlink:href="#surface65" mask="url(#mask20)"/>
<use xlink:href="#surface68" mask="url(#mask21)"/>
<use xlink:href="#surface71" mask="url(#mask22)"/>
<path style=" stroke:none;fill-rule:evenodd;fill:rgb(80.392158%,96.078432%,93.725491%);fill-opacity:1;" d="M 102.753906 297.667969 C 104.863281 327.664062 105.570312 358.03125 104.871094 388.769531 C 102.761719 360.898438 102.058594 332.648438 102.753906 304.027344 C 98.921875 304.007812 95.390625 305.066406 92.160156 307.203125 C 82.554688 313.984375 74.433594 322.105469 67.796875 331.566406 C 64.660156 344.183594 62.1875 356.894531 60.382812 369.703125 C 60.734375 374.644531 61.085938 379.589844 61.441406 384.535156 C 72.597656 402.859375 88.488281 408.15625 109.109375 400.421875 C 107.6875 398.335938 107.6875 395.863281 109.109375 393.007812 C 109.816406 393.007812 110.523438 393.007812 111.230469 393.007812 C 152.902344 393.363281 194.566406 393.007812 236.230469 391.949219 C 238.230469 386.1875 238.933594 380.1875 238.347656 373.941406 C 239.722656 373.296875 241.136719 372.589844 242.585938 371.820312 C 246.523438 375.40625 250.761719 378.585938 255.296875 381.355469 C 258.613281 382.976562 261.4375 382.621094 263.769531 380.296875 C 269.3125 378.21875 274.257812 375.042969 278.601562 370.761719 C 283.503906 369.359375 288.445312 368.300781 293.433594 367.585938 C 293.195312 368.890625 292.492188 369.953125 291.3125 370.761719 C 296.585938 372.757812 300.824219 371.695312 304.027344 367.585938 C 306.039062 370.589844 306.746094 374.121094 306.144531 378.179688 C 306.144531 387.359375 306.144531 396.539062 306.144531 405.71875 C 260.238281 405.71875 214.335938 405.71875 168.433594 405.71875 C 133.664062 406.394531 99.058594 405.6875 64.617188 403.601562 C 49.074219 365.859375 56.136719 333.019531 85.804688 305.085938 C 91.4375 301.953125 97.085938 299.480469 102.753906 297.667969 Z M 102.753906 297.667969 "/>
<use xlink:href="#surface74" mask="url(#mask23)"/>
<path style=" stroke:none;fill-rule:evenodd;fill:rgb(23.137255%,56.862748%,50.980395%);fill-opacity:1;" d="M 242.585938 369.703125 C 246.179688 370.09375 249.003906 371.863281 251.058594 375 C 256.824219 376.277344 262.472656 375.921875 268.007812 373.941406 C 266.59375 376.058594 265.183594 378.179688 263.769531 380.296875 C 261.4375 382.621094 258.613281 382.976562 255.296875 381.355469 C 250.761719 378.585938 246.523438 375.40625 242.585938 371.820312 C 241.136719 372.589844 239.722656 373.296875 238.347656 373.941406 C 238.347656 371.117188 239.761719 369.703125 242.585938 369.703125 Z M 242.585938 369.703125 "/>
<path style=" stroke:none;fill-rule:evenodd;fill:rgb(79.607844%,98.823529%,96.078432%);fill-opacity:1;" d="M 104.871094 388.769531 C 105.578125 390.890625 106.992188 392.304688 109.109375 393.007812 C 107.6875 395.863281 107.6875 398.335938 109.109375 400.421875 C 88.488281 408.15625 72.597656 402.859375 61.441406 384.535156 C 61.085938 379.589844 60.734375 374.644531 60.382812 369.703125 C 62.1875 356.894531 64.660156 344.183594 67.796875 331.566406 C 74.433594 322.105469 82.554688 313.984375 92.160156 307.203125 C 95.390625 305.066406 98.921875 304.007812 102.753906 304.027344 C 102.058594 332.648438 102.761719 360.898438 104.871094 388.769531 Z M 104.871094 388.769531 "/>
<use xlink:href="#surface77" mask="url(#mask24)"/>
<use xlink:href="#surface80" mask="url(#mask25)"/>
</g>
</svg>
